# xmcd
#
# Track frame offsets:
#	150
#	15869
#	26414
#	41034
#	54216
#	67161
#	81430
#	92802
#	103560
#	112604
#	120812
#
# Disc length: 1828 seconds
#
# Revision: 1
# Processed by: cddbd v1.5.2PL0 Copyright (c) Steve Scherf et al.
# Submitted via: audiograbber 1.83.01
#
DISCID=7707220b
DTITLE=Don Williams and The Pozo-Seco Singers - Time
DYEAR=1966
DGENRE=Country
TTITLE0=Time
TTITLE1=It Ain't Worth The Lonely Road Back
TTITLE2=Tomorrow Is A Long Time
TTITLE3=If I Fell
TTITLE4=Come A Little Bit Closer
TTITLE5=Guantanamera
TTITLE6=I'll Be Gone
TTITLE7=Silver Threads And Golden Needles
TTITLE8=The House Of The Rising Sun
TTITLE9=She Understands Me
TTITLE10=You've Lost That Lovin' Feelin'
EXTD=
EXTT0=
EXTT1=
EXTT2=
EXTT3=
EXTT4=
EXTT5=
EXTT6=
EXTT7=
EXTT8=
EXTT9=
EXTT10=
PLAYORDER=
